<?xml version="1.0" ?><svg id="Слой_1" style="enable-background:new 0 0 512 512;" version="1.1" viewBox="0 0 512 512" xml:space="preserve" xmlns="http://www.w3.org/2000/svg" xmlns:xlink="http://www.w3.org/1999/xlink"><style type="text/css">
	.st0{fill:#F0EEEF;}
	.st1{fill:#5C4A43;}
	.st2{fill:#FFFFFF;}
	.st3{fill:#BEB7B4;}
	.st4{fill:#FF6E15;}
	.st5{fill:#FFF8F5;}
</style><g><g><g><path class="st0" d="M453.6,324.9c0,6.7-2.7,12.8-7.1,17.1c-4.4,4.4-10.4,7.1-17.1,7.1h-23.3c-5,0-9.1,3.9-9.1,8.8v45.3     c0,11.5-9.7,20.8-21.6,20.8H190.9c-11.9,0-21.6-9.3-21.6-20.8v-42.6c0-6.4-5.4-11.6-12-11.6H134c-13.3,0-24.2-10.9-24.2-24.3     c0-6.7,2.7-12.8,7.1-17.1c0.3-0.3,0.6-0.6,1-0.9c7.2-6.5,9.8-16.3,6.2-25.1c-8.8-21.6-12.5-47.5-12.5-70.6     c0-87,76.2-157.5,170.1-157.5s170.1,70.5,170.1,157.5c0,23-3.7,48.9-12.5,70.6c-3.6,8.8-1,18.7,6.2,25.1     C450.5,311.3,453.6,317.7,453.6,324.9z"/></g><g><g><path class="st1" d="M424.9,326c-0.2,7.6-4.3,14.4-11.2,17.7c-3.8,1.8-7.8,1.8-11.9,1.8c-7.3,0-14.9-0.6-22.2,0.1      c-10.2,1-14.3,9.3-14.3,18.4c0,8.3,0,16.7,0,25c0,6.4,0.2,12.8,0,19.2c-0.3,9.4-7.7,16-16.9,16.2c-7.6,0.2-15.2,0-22.7,0      c-35.2,0-70.5,0-105.7,0c-15.6,0-31.1,0-46.7,0c-6.7,0-13.7,0.5-20.4,0c-9.9-0.8-15.4-8.7-15.4-18c0-8.1,0-16.1,0-24.2      c0-6.1,0.2-12.3,0-18.4c-0.5-11.6-9.7-18.2-20.7-18.2c-7.4,0-14.9,0.1-22.3,0c-12.5-0.2-22.1-11.8-19.1-24.3      c1.8-7.5,8.6-11.2,12.2-17.6c3.5-6.2,4.8-13.5,3.3-20.5c-1.6-7.7-5.4-15.2-7.5-22.9c-2.2-8.2-3.8-16.6-4.9-25      c-3.5-27.4-2.1-54.9,7.5-81c8.5-23.1,22.9-43.9,40.9-60.7c38.9-36.3,93.4-52.2,145.9-45.9c50.9,6.1,99.1,34.4,126.6,78      c13.2,21,21.4,45,23.2,69.8c1.1,15.6,0.1,31.5-2.5,46.9c-1.4,8.3-3.3,16.6-5.8,24.6c-2.3,7.3-6.2,14.4-6.2,22.1      c0,6.6,2.4,13.1,6.5,18.3c2.2,2.8,5,4.9,7,7.8C423.8,318.4,424.8,322.1,424.9,326c0.2,7.7,12.2,7.7,12,0      c-0.2-7.9-2.9-15.2-8.1-21.1c-4.9-5.6-9.7-10.4-8.4-18.5c0.6-3.6,2.4-7.1,3.7-10.6c1.5-4.3,2.9-8.7,4-13.2      c2.2-8.4,3.8-17,4.9-25.7c3.8-28.7,2.5-57.9-7.5-85.3C407.2,101.4,365.2,63,315.1,45.3C262.1,26.7,201.3,32,152.5,60      c-45.8,26.3-79.3,72.2-86.3,124.9c-4.2,31.6-0.1,65.9,11.3,95.7c2.7,7.1,2.9,13.9-2.3,20c-5.1,6.1-10.1,10.8-11.7,19.1      c-2.8,14,4.3,28.7,17.3,34.8c8.5,4,18.1,3.1,27.3,3.1c6.1,0,16.9-2.1,17.4,6.6c0.9,14.6-0.3,29.3,0,43.9      c0.3,12.2,7.6,22.7,19.2,26.8c4.2,1.5,8.6,1.6,13,1.6c11.6,0,23.2,0,34.7,0c37.7,0,75.3,0,113,0c12.6,0,25.2,0,37.8,0      c2.2,0,4.5,0.1,6.8,0c13.9-0.8,25.7-11.2,27.2-25.2c0.6-6.1,0.2-12.5,0.2-18.7c0-9,0-18,0-27c0-1.6-0.4-4,0.1-5.6      c1.2-3.1,5.3-2.4,7.9-2.4c8.2,0,16.8,0.8,24.9-0.4c15.5-2.3,26.2-15.8,26.7-31.2C437.1,318.3,425.1,318.3,424.9,326z"/></g></g><g><g><circle class="st1" cx="190.7" cy="270.3" r="27.3"/><g><path class="st1" d="M212,270.3c-0.3,11.7-9.5,21.3-21.3,21.3c-11.6,0-21.3-9.7-21.3-21.3c0-11.6,9.7-21.3,21.3-21.3       C202.5,249,211.7,258.7,212,270.3c0.2,7.7,12.2,7.7,12,0c-0.3-14-8.8-26.4-22-31.3c-13-4.8-28.3-0.6-37,10.1       c-8.7,10.7-10.1,26-3.1,38c7.1,12.2,21.3,18.4,35.1,15.9c15.8-2.9,26.7-17,27-32.7C224.2,262.6,212.2,262.6,212,270.3z"/></g></g><g><circle class="st1" cx="309.1" cy="270.3" r="27.3"/><g><path class="st1" d="M330.4,270.3c-0.3,11.7-9.5,21.3-21.3,21.3c-11.6,0-21.3-9.7-21.3-21.3c0-11.6,9.7-21.3,21.3-21.3       C320.9,249,330.1,258.7,330.4,270.3c0.2,7.7,12.2,7.7,12,0c-0.3-14-8.8-26.4-22-31.3c-13-4.8-28.3-0.6-37,10.1       c-8.7,10.7-10.1,26-3.1,38c7.1,12.2,21.3,18.4,35.1,15.9c15.8-2.9,26.7-17,27-32.7C342.6,262.6,330.6,262.6,330.4,270.3z"/></g></g></g><g><path class="st1" d="M249.9,335.7L249.9,335.7c10.4,0,16.6-11.7,10.7-20.3l-10.5-15.3c-0.1-0.2-0.3-0.2-0.5,0l-10.5,15.3     C233.3,324,239.5,335.7,249.9,335.7z"/><g><path class="st1" d="M249.9,341.7c10.7,0,19.5-9.3,18.9-20c-0.4-7.5-6.1-13.7-10.2-19.7c-1.5-2.2-3.2-5.6-5.5-7      c-4.3-2.6-7.7,0.7-9.9,4c-3.7,5.4-8.7,10.9-11,17.1C227.3,328.6,237,341.1,249.9,341.7c7.7,0.4,7.7-11.6,0-12      c-3.5-0.2-6.6-2.6-6.9-6.3c-0.2-2.7,1.3-4.7,2.7-6.7c3.1-4.5,6.1-9,9.2-13.5c-1.7,1-3.5,2-5.2,3c0.2,0,0.3,0,0.5,0      c-1.7-1-3.5-2-5.2-3c3.1,4.6,6.3,9.1,9.4,13.7c1.4,2.1,2.8,4.1,2.5,6.8c-0.5,3.4-3.5,6-6.9,6      C242.1,329.7,242.1,341.7,249.9,341.7z"/></g></g><g><g><g><path class="st1" d="M192.1,445.1c0-10.1,0-20.2,0-30.4c0-7.7-12-7.7-12,0c0,10.1,0,20.2,0,30.4       C180.1,452.8,192.1,452.8,192.1,445.1L192.1,445.1z"/></g></g><g><g><path class="st1" d="M231.6,445.1c0-10.1,0-20.2,0-30.4c0-7.7-12-7.7-12,0c0,10.1,0,20.2,0,30.4       C219.6,452.8,231.6,452.8,231.6,445.1L231.6,445.1z"/></g></g><g><g><path class="st1" d="M275.6,445.1c0-10.1,0-20.2,0-30.4c0-7.7-12-7.7-12,0c0,10.1,0,20.2,0,30.4       C263.6,452.8,275.6,452.8,275.6,445.1L275.6,445.1z"/></g></g><g><g><path class="st1" d="M319.6,445.1c0-10.1,0-20.2,0-30.4c0-7.7-12-7.7-12,0c0,10.1,0,20.2,0,30.4       C307.6,452.8,319.6,452.8,319.6,445.1L319.6,445.1z"/></g></g></g><g><g><circle class="st2" cx="191.7" cy="270.3" r="13.1"/></g><g><circle class="st2" cx="169.2" cy="271.1" r="5.9"/></g></g><g><g><circle class="st2" cx="310.1" cy="271.1" r="13.1"/></g><g><circle class="st2" cx="287.6" cy="271.9" r="5.9"/></g></g><g><path class="st3" d="M250.6,327.2L250.6,327.2c5.3,0,8.4-5.9,5.4-10.3l-5.3-7.8c-0.1-0.1-0.2-0.1-0.2,0l-5.3,7.8     C242.1,321.3,245.3,327.2,250.6,327.2z"/></g></g><g><g><g><path class="st1" d="M208.9,222c3,0,6,0,9.1,0c3.1,0,6.1-2.8,6-6c-0.1-3.3-2.6-6-6-6c-3,0-6,0-9.1,0c-3.1,0-6.1,2.8-6,6      C203.1,219.3,205.6,222,208.9,222L208.9,222z"/></g></g><g><g><path class="st1" d="M193.3,210c-7.1,0-14.4-0.5-21.5,0c-2.4,0.2,0.6,0.7-0.3,0c-1.3-1-4.1-1.4-5.6-1.9      c-3.3-1.1-6.6-2.3-9.9-3.4c-7.3-2.5-10.5,9.1-3.2,11.6c5.8,2,12.3,5.5,18.5,5.8c7.3,0.3,14.7,0,21.9,0      C201,222,201.1,210,193.3,210L193.3,210z"/></g></g></g><g><g><path class="st1" d="M280.5,222c12.6,0,25.1,0,37.7,0c3.9,0,8.1,0.5,11.9-0.4c6-1.4,11.9-3.6,17.8-5.4c7.4-2.2,4.2-13.8-3.2-11.6     c-5.6,1.7-12.1,2.8-17.4,5.3c-1.7,0.8,0.4,0.1,0.4,0.1c-0.7,0-1.4,0-2,0c-2.8,0-5.5,0-8.3,0c-12.3,0-24.6,0-36.9,0     C272.8,210,272.7,222,280.5,222L280.5,222z"/></g></g><g><g><path class="st1" d="M225.2,371.4c16.9,0,33.9,0,50.8,0c7.7,0,7.7-12,0-12c-16.9,0-33.9,0-50.8,0     C217.4,359.4,217.4,371.4,225.2,371.4L225.2,371.4z"/></g></g><g><g><path class="st1" d="M228,365.4c0,5.3,0,10.6,0,15.9c0,7.7,12,7.7,12,0c0-5.3,0-10.6,0-15.9C240,357.7,228,357.7,228,365.4     L228,365.4z"/></g></g><g><path class="st4" d="M282.5,390.4L282.5,390.4c5.3,0,8.4-5.9,5.4-10.3l-5.3-7.8c-0.1-0.1-0.2-0.1-0.2,0l-5.3,7.8    C274.1,384.5,277.2,390.4,282.5,390.4z"/></g><g><g><path class="st1" d="M261.2,365.4c0,5.3,0,10.6,0,15.9c0,7.7,12,7.7,12,0c0-5.3,0-10.6,0-15.9     C273.2,357.7,261.2,357.7,261.2,365.4L261.2,365.4z"/></g></g><g><ellipse class="st5" cx="331" cy="331.3" rx="17.7" ry="13.1"/></g><g><ellipse class="st5" cx="170.6" cy="330.9" rx="17.7" ry="13.1"/></g></g></svg>